<svg xmlns="http://www.w3.org/2000/svg" width="13.019" height="18" viewBox="0 0 13.019 18">
  <g id="lock-padlock-symbol-for-security-interface" transform="translate(-80.994)">
    <g id="Group_13" data-name="Group 13" transform="translate(80.994)">
      <path id="Path_5" data-name="Path 5" d="M87.5,0a5.27,5.27,0,0,0-5.264,5.264V8.27a.141.141,0,0,1-.075.1c-.285.095-.516.177-.727.259a.728.728,0,0,0-.443.651V16.19a.733.733,0,0,0,.44.651,16.477,16.477,0,0,0,12.139,0,.733.733,0,0,0,.44-.651V9.282a.728.728,0,0,0-.443-.651c-.212-.082-.443-.164-.727-.259a.142.142,0,0,1-.075-.1V5.264A5.27,5.27,0,0,0,87.5,0ZM86.07,11.386a1.434,1.434,0,1,1,2.867,0A1.412,1.412,0,0,1,88.22,12.6v2.37a.717.717,0,1,1-1.434,0V12.6A1.412,1.412,0,0,1,86.07,11.386Zm4.888-6.122V7.858a16.432,16.432,0,0,0-6.908,0V5.264a3.454,3.454,0,0,1,6.908,0Z" transform="translate(-80.994)" fill="#bfd0da"/>
    </g>
  </g>
</svg>
