<svg xmlns="http://www.w3.org/2000/svg" width="88" height="111" viewBox="0 0 88 111">
  <path id="Intersection_1" data-name="Intersection 1" d="M10.025,89.015q.712-.319,1.46-.571l20.751-6.967c4.876-2.062,7.157-10.224,7.648-13.32a19.713,19.713,0,0,1-6.91-12.8c0-1.673-.491-2.358-.752-2.491a2,2,0,0,1-1.4-1.357,35.657,35.657,0,0,1-2.506-10.333,2.318,2.318,0,0,1,.071-.572,6.082,6.082,0,0,1,2.267-3.441V24.633A24.511,24.511,0,0,1,54.025,1h0c14.3,0,18.189,7.417,18.651,11.083C75.1,13.895,77.4,17.018,77.4,24.633v12.53A6.082,6.082,0,0,1,79.665,40.6a2.3,2.3,0,0,1,.069.572A35.637,35.637,0,0,1,77.229,51.5a2.343,2.343,0,0,1-1.6,1.417,3.882,3.882,0,0,0-.566,2.435,19.717,19.717,0,0,1-6.872,12.776c.5,3.1,2.79,11.268,7.806,13.381l20.568,6.929q.748.252,1.462.572a53.607,53.607,0,0,1-88,0Z" transform="translate(-10.025 -1)" fill="#fff"/>
</svg>
